<svg width="40" height="40" viewBox="0 0 40 40" fill="none" xmlns="http://www.w3.org/2000/svg">
<g opacity="0.88">
<path fill-rule="evenodd" clip-rule="evenodd" d="M34.8848 1.33563C36.4958 2.18903 37.8126 3.50603 38.664 5.11563C39.5359 6.74563 40.0002 8.36219 40.0002 12.8188V20.6467C40.0001 20.6961 39.9854 20.7444 39.9579 20.7854C39.9303 20.8264 39.8912 20.8584 39.8455 20.8773C39.7998 20.8962 39.7495 20.9011 39.7009 20.8915C39.6524 20.8819 39.6078 20.8582 39.5727 20.8233V20.8222L36.6163 17.8667C36.3816 17.632 36.2498 17.3139 36.2499 16.9824V13.3642C36.2499 10.0209 35.9014 8.80875 35.2477 7.58657C34.6089 6.37953 33.6211 5.392 32.4127 4.75219C31.204 4.10453 30.0041 3.75719 26.7406 3.75H21.8533C21.8039 3.74973 21.7557 3.73489 21.7147 3.70735C21.6737 3.6798 21.6418 3.64078 21.623 3.59518C21.6042 3.54959 21.5993 3.49947 21.609 3.45112C21.6186 3.40277 21.6424 3.35834 21.6773 3.32344L24.6337 0.366719C24.7496 0.250531 24.8874 0.158327 25.0391 0.095396C25.1908 0.0324651 25.3535 4.63684e-05 25.5178 0L27.1803 0C31.6377 0 33.2545 0.464375 34.8848 1.33563ZM28.7504 6.25C31.5119 6.25 33.7501 8.48891 33.7501 11.25V14.4156C33.7499 14.4645 33.7354 14.5121 33.7083 14.5528C33.6812 14.5935 33.6428 14.6254 33.5978 14.6445C33.5528 14.6637 33.5032 14.6692 33.455 14.6605C33.4069 14.6519 33.3623 14.6293 33.3269 14.5956L29.296 10.7422C29.0382 10.4842 28.7269 10.2859 28.384 10.1611C28.1015 10.0543 27.8019 9.99975 27.4999 10H15.6007C15.5512 9.99992 15.5029 9.98521 15.4617 9.95774C15.4206 9.93026 15.3886 9.89125 15.3696 9.84562C15.3507 9.79999 15.3457 9.74979 15.3554 9.70135C15.365 9.65291 15.3888 9.6084 15.4238 9.57344L18.3845 6.61563C18.5005 6.4998 18.6381 6.40789 18.7897 6.34516C18.9412 6.28242 19.1036 6.25009 19.2677 6.25H28.7504Z" fill="#E55638"/>
<path fill-rule="evenodd" clip-rule="evenodd" d="M36.6761 21.6777L39.6336 24.6343C39.8679 24.8693 39.9996 25.1871 40 25.5186V27.1821C40 31.6388 39.5356 33.2555 38.6637 34.8855C37.8123 36.4951 36.4955 37.8121 34.8844 38.6655C33.2544 39.5355 31.6374 39.9999 27.18 39.9999H19.353C19.3036 39.9996 19.2554 39.9847 19.2145 39.9572C19.1735 39.9296 19.1416 39.8906 19.1228 39.845C19.104 39.7994 19.0992 39.7493 19.1088 39.701C19.1185 39.6526 19.1423 39.6082 19.1772 39.5733V39.5743L22.1336 36.6177C22.2495 36.5015 22.3873 36.4093 22.539 36.3464C22.6907 36.2834 22.8534 36.251 23.0177 36.251H26.6355C29.9782 36.251 31.1897 35.9032 32.4124 35.2488C33.6208 34.609 34.6086 33.6215 35.2474 32.4144C35.901 31.1921 36.2496 29.9799 36.2496 26.6366V21.8543C36.2499 21.8051 36.2647 21.757 36.2922 21.7162C36.3196 21.6754 36.3586 21.6435 36.4041 21.6247C36.4497 21.6058 36.4998 21.6008 36.5481 21.6102C36.5965 21.6197 36.6411 21.6431 36.6761 21.6777ZM30.4268 15.4264L33.3843 18.3864C33.6185 18.6214 33.7499 18.9394 33.7496 19.2708V28.753C33.7496 31.5141 31.5114 33.753 28.7498 33.753H25.5842C25.5353 33.7528 25.4875 33.7382 25.4468 33.7112C25.406 33.6842 25.3741 33.6459 25.3549 33.6011C25.3358 33.5562 25.3302 33.5067 25.3388 33.4587C25.3475 33.4106 25.3701 33.3662 25.4038 33.3308V33.3297L29.2565 29.2975C29.5153 29.0402 29.7142 28.7291 29.839 28.3864C29.9454 28.104 29.9997 27.8047 29.9992 27.503V15.603C29.9992 15.5536 30.014 15.5053 30.0415 15.4642C30.0691 15.4232 30.1082 15.3912 30.1539 15.3723C30.1997 15.3534 30.25 15.3484 30.2986 15.3581C30.3472 15.3677 30.3918 15.3915 30.4268 15.4264Z" fill="#F4C942"/>
<path fill-rule="evenodd" clip-rule="evenodd" d="M0.426548 19.1765L3.38514 22.1332C3.61943 22.3682 3.75113 22.6861 3.75156 23.0176V26.6355C3.75156 29.9788 4.09887 31.191 4.75372 32.4132C5.39226 33.62 6.37956 34.6075 7.58751 35.2476C8.81016 35.9023 10.0228 36.2499 13.3656 36.2499H18.1471C18.1967 36.2497 18.2452 36.2643 18.2865 36.2917C18.3278 36.319 18.3601 36.358 18.3792 36.4037C18.3982 36.4494 18.4033 36.4997 18.3937 36.5483C18.3841 36.5968 18.3603 36.6414 18.3253 36.6765L15.3665 39.6332C15.2508 39.7493 15.1132 39.8414 14.9617 39.9043C14.8101 39.9673 14.6477 39.9998 14.4835 39.9999H12.8199C8.36247 39.9999 6.74679 39.5355 5.1167 38.6643C3.50516 37.8111 2.18796 36.4941 1.33617 34.8843C0.473055 33.2707 0.00939533 31.6702 0.000156589 27.314L0 19.353C0.000267163 19.3038 0.0150723 19.2558 0.0425614 19.215C0.0700505 19.1741 0.109002 19.1423 0.154538 19.1235C0.200074 19.1046 0.250172 19.0996 0.298556 19.109C0.346941 19.1184 0.391464 19.1419 0.426548 19.1765ZM6.67335 25.4043H6.67225L10.7054 29.2577C10.9627 29.5156 11.2736 29.714 11.6162 29.8388C11.8986 29.946 12.1983 30.0006 12.5005 29.9999H24.3997C24.4491 30.0002 24.4973 30.0151 24.5382 30.0426C24.5792 30.0702 24.6111 30.1092 24.6299 30.1548C24.6486 30.2004 24.6535 30.2505 24.6438 30.2988C24.6342 30.3472 24.6104 30.3916 24.5755 30.4265L21.6158 33.3843C21.3816 33.618 21.064 33.7495 20.7327 33.7499H11.2501C10.5928 33.7492 9.94206 33.6193 9.33505 33.3677C8.72803 33.116 8.17664 32.7475 7.71236 32.2832C7.24807 31.8189 6.87998 31.2679 6.62911 30.6617C6.37824 30.0554 6.2495 29.4058 6.25024 28.7499V25.5843C6.25046 25.5354 6.265 25.4878 6.29206 25.4471C6.31913 25.4064 6.35754 25.3745 6.40255 25.3554C6.44757 25.3362 6.49721 25.3307 6.54536 25.3394C6.59351 25.348 6.63806 25.3706 6.6735 25.4043H6.67335Z" fill="#7B8FEA"/>
<path fill-rule="evenodd" clip-rule="evenodd" d="M14.4156 6.25C14.4645 6.25025 14.5122 6.26476 14.553 6.29177C14.5937 6.31877 14.6256 6.35707 14.6448 6.40195C14.664 6.44684 14.6696 6.49634 14.6609 6.54436C14.6522 6.59238 14.6296 6.63682 14.596 6.67219L10.7422 10.7056C10.4837 10.963 10.2853 11.274 10.1609 11.6166C10.0541 11.8989 9.99939 12.1982 9.99945 12.5V24.4C9.999 24.4491 9.98407 24.497 9.9565 24.5377C9.92895 24.5784 9.88998 24.6101 9.84449 24.6288C9.79899 24.6476 9.74897 24.6525 9.70067 24.6431C9.65237 24.6336 9.60793 24.6101 9.5729 24.5756L6.61541 21.6156C6.38133 21.381 6.25002 21.0633 6.25024 20.7322V11.25C6.25024 8.48891 8.48837 6.25 11.25 6.25H14.4156ZM20.6469 0C20.6963 0.000268595 20.7445 0.0151096 20.7855 0.0426566C20.8265 0.0702035 20.8584 0.109226 20.8772 0.154817C20.896 0.200409 20.9009 0.250532 20.8912 0.298884C20.8815 0.347236 20.8578 0.391658 20.8229 0.426563L17.8665 3.38328C17.7505 3.49938 17.6127 3.59153 17.461 3.65445C17.3093 3.71738 17.1467 3.74985 16.9824 3.75H13.3645C10.0217 3.75 8.80906 4.09782 7.58642 4.75219C6.378 5.392 5.39024 6.37953 4.75138 7.58657C4.10466 8.79594 3.75657 9.99563 3.74921 13.2595V18.1467C3.74891 18.1959 3.73409 18.2439 3.70661 18.2847C3.67913 18.3255 3.6402 18.3573 3.5947 18.3761C3.5492 18.395 3.49913 18.4 3.45077 18.3906C3.40242 18.3812 3.35791 18.3578 3.32282 18.3233L0.367514 15.3667C0.251049 15.2506 0.158648 15.1128 0.0955892 14.961C0.0325301 14.8093 4.86322e-05 14.6466 0 14.4824L0 12.8188C0 8.36219 0.464286 6.74532 1.33617 5.11563C2.18763 3.50603 3.50437 2.18903 5.11545 1.33563C6.72941 0.473125 8.33021 0.00937501 12.686 0H20.647H20.6469Z" fill="#D97EE8"/>
</g>
</svg>
