<svg width="15" height="15" viewBox="0 0 15 15" fill="none" xmlns="http://www.w3.org/2000/svg">
<g clip-path="url(#clip0_53_23)">
<path d="M7.66554 0.422119C9.52477 0.422119 11.3079 1.1607 12.6225 2.47538C13.9372 3.79006 14.6758 5.57314 14.6758 7.43238C14.6758 9.16877 14.0395 10.765 12.9933 11.9944L13.2845 12.2856H14.1365L19.5291 17.6782L17.9113 19.2959L12.5188 13.9034V13.0514L12.2276 12.7602C10.9556 13.846 9.33798 14.4425 7.66554 14.4426C5.8063 14.4426 4.02321 13.7041 2.70853 12.3894C1.39385 11.0747 0.655273 9.29162 0.655273 7.43238C0.655273 5.57314 1.39385 3.79006 2.70853 2.47538C4.02321 1.1607 5.8063 0.422119 7.66554 0.422119ZM7.66554 2.57912C4.96928 2.57912 2.81228 4.73613 2.81228 7.43238C2.81228 10.1286 4.96928 12.2856 7.66554 12.2856C10.3618 12.2856 12.5188 10.1286 12.5188 7.43238C12.5188 4.73613 10.3618 2.57912 7.66554 2.57912Z" fill="black"/>
</g>
<defs>
<clipPath id="clip0_53_23">
<rect width="14.1553" height="14.1553" fill="white" transform="translate(0.655273 0.421997)"/>
</clipPath>
</defs>
</svg>
