<svg width="60" height="27" viewBox="0 0 60 27" fill="none" xmlns="http://www.w3.org/2000/svg">
<rect width="58.9806" height="25.1651" transform="translate(0.689453 0.91748)" fill="white"/>
<path d="M27.3836 23.6859H32.9758C32.9758 25.004 31.7176 26.0825 30.1797 26.0825C28.6418 26.0825 27.3836 25.004 27.3836 23.6859ZM42.7622 21.2892V22.4875H17.5972V21.2892L20.3933 18.8925V11.7025C20.3933 7.98766 23.1894 4.75216 27.3836 3.67365V3.31415C27.3836 1.99598 28.6418 0.91748 30.1797 0.91748C31.7176 0.91748 32.9758 1.99598 32.9758 3.31415V3.67365C37.17 4.75216 39.9661 7.98766 39.9661 11.7025V18.8925L42.7622 21.2892ZM37.17 11.7025C37.17 8.34716 34.0943 5.71082 30.1797 5.71082C26.2651 5.71082 23.1894 8.34716 23.1894 11.7025V20.0909H37.17V11.7025Z" fill="black"/>
</svg>
